<?xml version="1.0" encoding="iso-8859-1"?>
<!-- Uploaded to: SVG Repo, www.svgrepo.com, Generator: SVG Repo Mixer Tools -->
<svg height="800px" width="800px" version="1.1" id="Capa_1" xmlns="http://www.w3.org/2000/svg" xmlns:xlink="http://www.w3.org/1999/xlink" 
	 viewBox="0 0 45.253 45.253" xml:space="preserve">
<g>
	<g>
		<path style="fill:#010002;" d="M23.421,8.384c2.147,0,3.89-1.747,3.89-3.892c0-2.147-1.744-3.887-3.89-3.887
			c-2.143,0-3.886,1.74-3.886,3.888C19.535,6.637,21.278,8.384,23.421,8.384z M0.127,43.962L0,29.714l4.295-0.037l0.127,14.248
			L0.127,43.962z M35.543,28.83l0.055,5.894l-7.504,0.067L28.092,15.56l9.525-9.784c0.002,0,0.004-0.006,0.008-0.012
			c0.641-0.639,0.641-1.68,0-2.324c-0.637-0.639-1.677-0.635-2.316,0c-0.004,0.012-0.006,0.014-0.012,0.016l-6.139,6.186
			L29.15,9.663V9.64H17.231l-6.14-6.186c-0.008-0.002-0.01-0.004-0.012-0.016c-0.641-0.635-1.678-0.639-2.318,0
			c-0.643,0.645-0.643,1.686,0,2.324c0.005,0.006,0.008,0.012,0.008,0.012l9.486,9.744l-0.006,19.361l-8.635,0.078l-0.047-5.33
			l-4.292,0.039l0.126,14.25l4.295-0.039l-0.058-6.461l8.606-0.078l-0.002,5.09c0,1.229,0.993,2.22,2.22,2.22
			c1.223,0,2.216-0.99,2.216-2.22l-0.002-5.131l0.99-0.008v5.158l0.018,0.014c0.017,1.207,0.994,2.187,2.205,2.187
			c1.217,0,2.205-0.99,2.205-2.209v-5.188l7.521-0.067l0.053,5.896l4.297-0.037l-0.129-14.246L35.543,28.83z M23.669,34.832
			l-0.991,0.008l-0.002-10.397h0.993V34.832z M28.091,14.515l0.031-0.006l-0.031,0.146V14.515z M40.828,28.781l4.295-0.039
			l0.13,14.248l-4.295,0.039L40.828,28.781z"/>
	</g>
</g>
</svg>